<?xml version="1.0" standalone="no"?>
<!DOCTYPE svg PUBLIC "-//W3C//DTD SVG 20010904//EN"
 "http://www.w3.org/TR/2001/REC-SVG-20010904/DTD/svg10.dtd">
<svg version="1.0" xmlns="http://www.w3.org/2000/svg"
 width="512.000000pt" height="512.000000pt" viewBox="0 0 512.000000 512.000000"
 preserveAspectRatio="xMidYMid meet">
<metadata>
Created by potrace 1.14, written by Peter Selinger 2001-2017
</metadata>
<g transform="translate(0.000000,512.000000) scale(0.100000,-0.100000)"
fill="#000000" stroke="none">
<path d="M2252 5109 c-59 -7 -124 -18 -147 -23 -5 -1 -26 -6 -45 -10 -105 -23
-335 -103 -395 -138 -11 -6 -51 -28 -90 -49 -259 -139 -514 -389 -673 -659
-94 -159 -181 -375 -208 -513 -2 -10 -5 -26 -8 -35 -3 -9 -7 -30 -10 -47 -36
-226 -38 -446 -6 -635 5 -30 12 -71 15 -90 22 -129 103 -399 178 -585 65 -163
189 -423 273 -572 13 -24 36 -64 51 -91 124 -222 343 -546 537 -796 104 -135
168 -211 321 -382 49 -55 135 -154 190 -220 54 -65 106 -126 115 -135 8 -9 35
-42 60 -74 l45 -57 39 43 c21 24 57 66 80 92 22 27 50 59 61 71 78 88 111 124
204 225 58 63 123 133 145 155 80 84 247 286 352 427 429 569 747 1208 863
1737 36 161 50 245 58 356 13 170 6 392 -17 503 -5 27 -12 60 -14 74 -2 14
-14 62 -26 105 -170 605 -633 1079 -1232 1259 -78 24 -98 28 -198 46 -30 5
-66 12 -80 15 -41 9 -370 11 -438 3z m358 -997 c106 -24 156 -42 240 -89 321
-176 486 -550 400 -909 -74 -313 -307 -541 -634 -621 -55 -13 -267 -11 -333 4
-374 86 -644 422 -644 803 0 229 102 466 260 605 19 16 39 35 45 40 69 67 256
153 376 171 19 3 36 7 37 8 7 6 215 -4 253 -12z"/>
</g>
</svg>
